{"title":"Scott.Pilgrim.Vs.The.World.2010.DvDRip.Ac3.Feel-Free","uid":5919764,"size":1132808674,"categoryP":"video","categoryS":"movies","magnet":"?xt=urn:btih:ed7d73e8a07c310fb3101e1624e4cecf4a2db482&amp;dn=Scott.Pilgrim.Vs.The.World.2010.DvDRip.Ac3.Feel-Free&amp;tr=udp%3A%2F%2Ftracker.openbittorrent.com%3A80&amp;tr=udp%3A%2F%2Fopen.demonii.com%3A1337&amp;tr=udp%3A%2F%2Ftracker.coppersurfer.tk%3A6969&amp;tr=udp%3A%2F%2Fexodus.desync.com%3A6969","seeders":0,"leechers":0,"uploader":"deffjam555","files":9,"time":1288358468,"description":"cover\n &lt;a href=&quot;\nhttp://img32.imageshack.us/img32/9197/scottpilgrimvstheworldm.jpg&quot; rel=&quot;nofollow&quot; target=&quot;_NEW&quot;&gt;\nhttp://img32.imageshack.us/img32/9197/scottpilgrimvstheworldm.jpg&lt;/a&gt;\n\nGenre:Action | Adventure | Comedy | Fantasy\nLanguage:English\nIMDb:http://www.imdb.com/title/tt0446029/\nSource:DVDR-BLOW\n\nGeneral\nComplete name :Scott.Pilgrim.Vs.The.World.2010.DvDRip.Ac3.Feel-Free\nFormat : AVI\nFormat/Info : Audio Video Interleave\nFile size : 1.05 GiB\nDuration : 1h 52mn\nOverall bit rate : 1 341 Kbps\nVideo #0\nMuxing mode : Packed bitstream\nCodec ID : XVID\nCodec ID/Hint : XviD\nDuration : 1h 52mn\nBit rate : 1 012 Kbps\nWidth : 652 pixels\nHeight : 352 pixels\nDisplay aspect ratio : 1.852\nFrame rate : 23.976 fps\nResolution : 24 bits\nColorimetry : 4:2:0\nScan type : Progressive\nBits/(Pixel*Frame) : 0.184\nStream size : 815 MiB (75%)\nWriting library : XviD 1.2.1 (UTC 2008-12-04)\nAudio #1\nID : 1\nFormat : AC-3\nFormat/Info : Audio Coding 3\nCodec ID : 2000\nDuration : 1h 52mn\nBit rate mode : Constant\nBit rate : 320 Kbps\nChannel(s) : 6 channels\nChannel positions : Front: L C R, Surround: L R, LFE\nSampling rate : 48.0 KHz\nStream size : 257 MiB (24%)\nAlignment : Split accross interleaves\nInterleave, duration : 42 ms (1.00 video frame)\nInterleave, preload duration : 500 ms\n\nPlot:\nScott Pilgrim must defeat his new girlfriend's seven evil exes in order to win her heart.\n\n\nscreens &lt;a href=&quot;\nhttp://img688.imageshack.us/img688/7271/scottpilgrimvstheworld2.jpg&quot; rel=&quot;nofollow&quot; target=&quot;_NEW&quot;&gt;\nhttp://img688.imageshack.us/img688/7271/scottpilgrimvstheworld2.jpg&lt;/a&gt; &lt;a href=&quot;\nhttp://img3.imageshack.us/img3/7271/scottpilgrimvstheworld2.jpg&quot; rel=&quot;nofollow&quot; target=&quot;_NEW&quot;&gt;\nhttp://img3.imageshack.us/img3/7271/scottpilgrimvstheworld2.jpg&lt;/a&gt; &lt;a href=&quot;\nhttp://img576.imageshack.us/img576/7271/scottpilgrimvstheworld2.jpg&quot; rel=&quot;nofollow&quot; target=&quot;_NEW&quot;&gt;\nhttp://img576.imageshack.us/img576/7271/scottpilgrimvstheworld2.jpg&lt;/a&gt; &lt;a href=&quot;\nhttp://img220.imageshack.us/img220/7271/scottpilgrimvstheworld2.jpg&quot; rel=&quot;nofollow&quot; target=&quot;_NEW&quot;&gt;\nhttp://img220.imageshack.us/img220/7271/scottpilgrimvstheworld2.jpg&lt;/a&gt; &lt;a href=&quot;\nhttp://img576.imageshack.us/img576/2517/scottpilgrimvstheworld2f.jpghttp://img249.imageshack.us/img249/9854/scottpilgrimvstheworld2g.jpg&quot; rel=&quot;nofollow&quot; target=&quot;_NEW&quot;&gt;\nhttp://img576.imageshack.us/img576/2517/scottpilgrimvstheworld2f.jpghttp://img249.imageshack.us/img249/9854/scottpilgrimvstheworld2g.jpg&lt;/a&gt;","torrent":{"xt":"urn:btih:ed7d73e8a07c310fb3101e1624e4cecf4a2db482","amp;dn":"Scott.Pilgrim.Vs.The.World.2010.DvDRip.Ac3.Feel-Free","amp;tr":["udp%3A%2F%2Ftracker.openbittorrent.com%3A80","udp%3A%2F%2Fopen.demonii.com%3A1337","udp%3A%2F%2Ftracker.coppersurfer.tk%3A6969","udp%3A%2F%2Fexodus.desync.com%3A6969"],"infoHash":"ed7d73e8a07c310fb3101e1624e4cecf4a2db482","infoHashBuffer":{"type":"Buffer","data":[237,125,115,232,160,124,49,15,179,16,30,22,36,228,206,207,74,45,180,130]},"announce":[],"urlList":[]}}